<svg version="1.1" xmlns="http://www.w3.org/2000/svg" xmlns:xlink="http://www.w3.org/1999/xlink" width="13px" height="17px" viewBox="0,0,256,256"><g fill="#f68817" fill-rule="nonzero" stroke="none" stroke-width="1" stroke-linecap="butt" stroke-linejoin="miter" stroke-miterlimit="10" stroke-dasharray="" stroke-dashoffset="0" font-family="none" font-weight="none" font-size="none" text-anchor="none" style="mix-blend-mode: normal"><g transform="scale(5.33333,5.33333)"><path d="M24,2c-9.37738,0 -17,7.62262 -17,17c0,4.91776 3.42831,11.40292 7.13477,16.875c1.85323,2.73604 3.79117,5.18774 5.46875,6.98633c0.83879,0.8993 1.60957,1.63545 2.30273,2.17383c0.69316,0.53838 1.23079,0.96484 2.09375,0.96484c0.86296,0 1.40059,-0.42647 2.09375,-0.96484c0.69316,-0.53838 1.46394,-1.27453 2.30273,-2.17383c1.67758,-1.79859 3.61552,-4.25029 5.46875,-6.98633c3.70645,-5.47208 7.13477,-11.95724 7.13477,-16.875c0,-9.37738 -7.62262,-17 -17,-17zM24,4c8.29662,0 15,6.70338 15,15c0,3.91924 -3.18847,10.43523 -6.79102,15.75391c-1.80127,2.65934 -3.69189,5.04851 -5.27344,6.74414c-0.79077,0.84781 -1.50863,1.52229 -2.06836,1.95703c-0.4073,0.31635 -0.76498,0.45844 -0.86719,0.51367c-0.10221,-0.05524 -0.45988,-0.19732 -0.86719,-0.51367c-0.55973,-0.43474 -1.27759,-1.10922 -2.06836,-1.95703c-1.58155,-1.69563 -3.47216,-4.0848 -5.27344,-6.74414c-3.60255,-5.31867 -6.79102,-11.83467 -6.79102,-15.75391c0,-8.29662 6.70338,-15 15,-15zM24,11c-4.40644,0 -8,3.59357 -8,8c0,4.40643 3.59356,8 8,8c4.40644,0 8,-3.59357 8,-8c0,-4.40643 -3.59356,-8 -8,-8zM24,13c3.32556,0 6,2.67445 6,6c0,3.32555 -2.67444,6 -6,6c-3.32556,0 -6,-2.67445 -6,-6c0,-3.32555 2.67444,-6 6,-6z"></path></g></g></svg>