<svg width="18" height="18" viewBox="0 0 24 24" fill="none" xmlns="http://www.w3.org/2000/svg">
<path fill-rule="evenodd" clip-rule="evenodd" d="M10.3715 1.84037C11.1689 0.719877 12.8331 0.719877 13.6305 1.84037L18.014 8H20.0007C21.9303 8 23.3581 9.79545 22.9236 11.6756L20.6648 21.4487C20.4552 22.3559 19.6473 22.9984 18.7162 22.9984H5.2858C4.35474 22.9984 3.54683 22.3559 3.33717 21.4487L1.07835 11.6756C0.643817 9.79545 2.07163 8 4.0013 8H5.98798L10.3715 1.84037ZM12.001 3L15.5592 8H8.44273L12.001 3ZM8 13C7.44771 13 7 13.4477 7 14V17C7 17.5523 7.44771 18 8 18V18C8.55228 18 9 17.5523 9 17V14C9 13.4477 8.55228 13 8 13V13ZM12 18C11.4477 18 11 17.5523 11 17V14C11 13.4477 11.4477 13 12 13V13C12.5523 13 13 13.4477 13 14V17C13 17.5523 12.5523 18 12 18V18ZM16 13C15.4477 13 15 13.4477 15 14V17C15 17.5523 15.4477 18 16 18V18C16.5523 18 17 17.5523 17 17V14C17 13.4477 16.5523 13 16 13V13Z" fill="#A7A9AB"/>
</svg>
